<?xml version="1.0" encoding="utf-8" standalone="no"?><!DOCTYPE svg PUBLIC "-//W3C//DTD SVG 20010904//EN" "http://www.w3.org/TR/2001/REC-SVG-20010904/DTD/svg10.dtd"><svg xmlns="http://www.w3.org/2000/svg" width="723" height="517" xmlns:xlink="http://www.w3.org/1999/xlink"><source><![CDATA[Title: Google OAuth Workflow
Client->Google: Sends it login request
Google->Client: Sends it a token, token stored in cookies
Client->Api: Sends token in request
Api->Server: Passes on token
Server->Google: Token validated by google
Google->Server: Gets a success message 
Server->Api: Sends back data 
Api-> Client: Sends back data ]]></source><desc>Google OAuth Workflow</desc><defs><marker viewBox="0 0 5 5" markerWidth="5" markerHeight="5" orient="auto" refX="5" refY="2.5" id="markerArrowBlock"><path d="M 0 0 L 5 2.5 L 0 5 z"></path></marker><marker viewBox="0 0 9.6 16" markerWidth="4" markerHeight="16" orient="auto" refX="9.6" refY="8" id="markerArrowOpen"><path d="M 9.6,8 1.92,16 0,13.7 5.76,8 0,2.286 1.92,0 9.6,8 z"></path></marker></defs><g class="title"><path d="M10,10C147.9,0.8 203.5,19.2 240.3,10.0C239.0,22.9 241.6,34.7 240.3,42.5C88.2,33.3 114.0,51.7 10.0,42.5C11.3,34.7 8.7,28.7 10.0,10.0" stroke="#000000" fill="#ffffff" style="stroke-width: 2;"></path><text x="15" y="29" style="font-size: 16px; font-family: danielbd;"><tspan x="15">Google OAuth Workflow</tspan></text></g><g class="actor"><path d="M10,52.5C37.3,49.6 27.4,55.4 81.4,52.5C79.7,59.3 83.1,88.2 81.4,95.0C64.3,97.9 64.3,92.1 10.0,95.0C8.3,67.0 11.7,68.0 10.0,52.5" stroke="#000000" fill="#ffffff" style="stroke-width: 2;"></path><text x="20" y="76.5" style="font-size: 16px; font-family: danielbd;"><tspan x="20">Client</tspan></text></g><g class="actor"><path d="M10,455C48.9,452.1 21.4,457.9 81.4,455.0C79.7,461.8 83.1,475.2 81.4,497.5C29.8,500.4 58.5,494.6 10.0,497.5C8.3,480.4 11.7,465.2 10.0,455.0" stroke="#000000" fill="#ffffff" style="stroke-width: 2;"></path><text x="20" y="479" style="font-size: 16px; font-family: danielbd;"><tspan x="20">Client</tspan></text></g><path d="M45.7,95.0C60.1,181.4 31.3,152.6 45.7,455.0" stroke="#000000" fill="none" style="stroke-width: 2;"></path><g class="actor"><path d="M374.296875,52.5C436.6,55.6 390.4,49.4 452.1,52.5C450.4,86.6 453.8,84.8 452.1,95.0C439.7,98.1 423.1,91.9 374.3,95.0C372.6,76.6 376.0,67.0 374.3,52.5" stroke="#000000" fill="#ffffff" style="stroke-width: 2;"></path><text x="384.296875" y="76.5" style="font-size: 16px; font-family: danielbd;"><tspan x="384.296875">Google</tspan></text></g><g class="actor"><path d="M374.296875,455C418.6,451.9 393.0,458.1 452.1,455.0C450.4,465.6 453.8,477.7 452.1,497.5C429.9,494.4 409.7,500.6 374.3,497.5C376.0,465.8 372.6,471.4 374.3,455.0" stroke="#000000" fill="#ffffff" style="stroke-width: 2;"></path><text x="384.296875" y="479" style="font-size: 16px; font-family: danielbd;"><tspan x="384.296875">Google</tspan></text></g><path d="M413.2,95.0C427.6,289.5 398.8,233.9 413.2,455.0" stroke="#000000" fill="none" style="stroke-width: 2;"></path><g class="actor"><path d="M472.125,52.5C504.1,54.4 507.3,50.6 519.9,52.5C518.2,59.3 521.6,62.7 519.9,95.0C502.3,93.1 484.9,96.9 472.1,95.0C470.4,72.8 473.8,82.3 472.1,52.5" stroke="#000000" fill="#ffffff" style="stroke-width: 2;"></path><text x="482.125" y="76.5" style="font-size: 16px; font-family: danielbd;"><tspan x="482.125">Api</tspan></text></g><g class="actor"><path d="M472.125,455C483.6,456.9 501.3,453.1 519.9,455.0C521.6,477.2 518.2,483.6 519.9,497.5C509.1,499.4 505.1,495.6 472.1,497.5C473.8,461.8 470.4,486.1 472.1,455.0" stroke="#000000" fill="#ffffff" style="stroke-width: 2;"></path><text x="482.125" y="479" style="font-size: 16px; font-family: danielbd;"><tspan x="482.125">Api</tspan></text></g><path d="M496.0,95.0C510.4,220.6 481.6,331.2 496.0,455.0" stroke="#000000" fill="none" style="stroke-width: 2;"></path><g class="actor"><path d="M616.265625,52.5C656.0,49.4 655.0,55.6 693.5,52.5C691.8,81.3 695.2,67.9 693.5,95.0C632.1,98.1 643.1,91.9 616.3,95.0C618.0,59.3 614.6,62.7 616.3,52.5" stroke="#000000" fill="#ffffff" style="stroke-width: 2;"></path><text x="626.296875" y="76.5" style="font-size: 16px; font-family: danielbd;"><tspan x="626.265625">Server</tspan></text></g><g class="actor"><path d="M616.265625,455C675.0,458.1 681.2,451.9 693.5,455.0C695.2,479.9 691.8,467.3 693.5,497.5C667.8,494.4 646.9,500.6 616.3,497.5C618.0,471.7 614.6,484.3 616.3,455.0" stroke="#000000" fill="#ffffff" style="stroke-width: 2;"></path><text x="626.296875" y="479" style="font-size: 16px; font-family: danielbd;"><tspan x="626.265625">Server</tspan></text></g><path d="M654.9,95.0C640.5,181.4 669.3,368.6 654.9,455.0" stroke="#000000" fill="none" style="stroke-width: 2;"></path><g class="signal"><text x="137.0859375" y="122.75" style="font-size: 16px; font-family: danielbd;"><tspan x="137.0546875">Sends it login request</tspan></text><path d="M45.7,137.5C131.9,152.2 183.7,122.8 413.2,137.5" stroke="#000000" fill="none" style="stroke-width: 2; marker-end: url(&quot;#markerArrowBlock&quot;);"></path></g><g class="signal"><text x="55.7421875" y="165.25" style="font-size: 16px; font-family: danielbd;"><tspan x="55.7109375">Sends it a token, token stored in cookies</tspan></text><path d="M413.2,180.0C289.0,194.7 104.5,165.3 45.7,180.0" stroke="#000000" fill="none" style="stroke-width: 2; marker-end: url(&quot;#markerArrowBlock&quot;);"></path></g><g class="signal"><text x="173.09765625" y="207.75" style="font-size: 16px; font-family: danielbd;"><tspan x="173.06640625">Sends token in request</tspan></text><path d="M45.7,222.5C388.0,204.5 276.7,240.5 496.0,222.5" stroke="#000000" fill="none" style="stroke-width: 2; marker-end: url(&quot;#markerArrowBlock&quot;);"></path></g><g class="signal"><text x="508.9140625" y="250.25" style="font-size: 16px; font-family: danielbd;"><tspan x="508.9140625">Passes on token</tspan></text><path d="M496.0,265.0C526.8,271.4 629.5,258.6 654.9,265.0" stroke="#000000" fill="none" style="stroke-width: 2; marker-end: url(&quot;#markerArrowBlock&quot;);"></path></g><g class="signal"><text x="425.60546875" y="292.75" style="font-size: 16px; font-family: danielbd;"><tspan x="425.60546875">Token validated by google</tspan></text><path d="M654.9,307.5C533.4,297.8 589.3,317.2 413.2,307.5" stroke="#000000" fill="none" style="stroke-width: 2; marker-end: url(&quot;#markerArrowBlock&quot;);"></path></g><g class="signal"><text x="432.58984375" y="335.25" style="font-size: 16px; font-family: danielbd;"><tspan x="432.58984375">Gets a success message</tspan></text><path d="M413.2,350.0C573.7,359.7 539.3,340.3 654.9,350.0" stroke="#000000" fill="none" style="stroke-width: 2; marker-end: url(&quot;#markerArrowBlock&quot;);"></path></g><g class="signal"><text x="506.0625" y="377.75" style="font-size: 16px; font-family: danielbd;"><tspan x="506.03125">Sends back data</tspan></text><path d="M654.9,392.5C601.3,386.1 521.4,398.9 496.0,392.5" stroke="#000000" fill="none" style="stroke-width: 2; marker-end: url(&quot;#markerArrowBlock&quot;);"></path></g><g class="signal"><text x="201.47265625" y="420.25" style="font-size: 16px; font-family: danielbd;"><tspan x="201.44140625">Sends back data</tspan></text><path d="M496.0,435.0C360.8,453.0 184.0,417.0 45.7,435.0" stroke="#000000" fill="none" style="stroke-width: 2; marker-end: url(&quot;#markerArrowBlock&quot;);"></path></g></svg>