<?xml version="1.0" encoding="utf-8" standalone="no"?><!DOCTYPE svg PUBLIC "-//W3C//DTD SVG 20010904//EN" "http://www.w3.org/TR/2001/REC-SVG-20010904/DTD/svg10.dtd"><svg xmlns="http://www.w3.org/2000/svg" width="972" height="315" xmlns:xlink="http://www.w3.org/1999/xlink"><source><![CDATA[Client->API: Registers with email and password
API->Server: Passes on the email and password
Server->API: Makes an account on the server and API, sends the token
API->Client: Passes on the token, stored in cookies]]></source><desc></desc><defs><marker viewBox="0 0 5 5" markerWidth="5" markerHeight="5" orient="auto" refX="5" refY="2.5" id="markerArrowBlock"><path d="M 0 0 L 5 2.5 L 0 5 z"></path></marker><marker viewBox="0 0 9.6 16" markerWidth="4" markerHeight="16" orient="auto" refX="9.6" refY="8" id="markerArrowOpen"><path d="M 9.6,8 1.92,16 0,13.7 5.76,8 0,2.286 1.92,0 9.6,8 z"></path></marker></defs><g class="title"></g><g class="actor"><path d="M10,20C64.3,17.1 43.6,22.9 81.4,20.0C83.1,26.8 79.7,44.5 81.4,62.5C50.6,59.6 58.2,65.4 10.0,62.5C11.7,35.9 8.3,45.4 10.0,20.0" stroke="#000000" fill="#ffffff" style="stroke-width: 2;"></path><text x="20" y="44" style="font-size: 16px; font-family: danielbd;"><tspan x="20">Client</tspan></text></g><g class="actor"><path d="M10,252.5C45.6,255.4 21.4,249.6 81.4,252.5C83.1,272.5 79.7,280.1 81.4,295.0C27.1,297.9 64.3,292.1 10.0,295.0C8.3,277.6 11.7,288.2 10.0,252.5" stroke="#000000" fill="#ffffff" style="stroke-width: 2;"></path><text x="20" y="276.5" style="font-size: 16px; font-family: danielbd;"><tspan x="20">Client</tspan></text></g><path d="M45.7,62.5C53.3,206.9 38.1,189.7 45.7,252.5" stroke="#000000" fill="none" style="stroke-width: 2;"></path><g class="actor"><path d="M366.734375,20C374.4,18.1 406.9,21.9 414.5,20.0C416.2,26.8 412.8,30.2 414.5,62.5C401.7,64.4 404.3,60.6 366.7,62.5C365.0,36.9 368.4,30.2 366.7,20.0" stroke="#000000" fill="#ffffff" style="stroke-width: 2;"></path><text x="376.734375" y="44" style="font-size: 16px; font-family: danielbd;"><tspan x="376.734375">API</tspan></text></g><g class="actor"><path d="M366.734375,252.5C392.9,254.4 380.8,250.6 414.5,252.5C412.8,265.7 416.2,284.8 414.5,295.0C380.1,296.9 375.0,293.1 366.7,295.0C368.4,278.5 365.0,280.8 366.7,252.5" stroke="#000000" fill="#ffffff" style="stroke-width: 2;"></path><text x="376.734375" y="276.5" style="font-size: 16px; font-family: danielbd;"><tspan x="376.734375">API</tspan></text></g><path d="M390.6,62.5C383.0,115.2 398.2,185.3 390.6,252.5" stroke="#000000" fill="none" style="stroke-width: 2;"></path><g class="actor"><path d="M865.0546875,20C890.9,23.1 877.4,16.9 942.3,20.0C944.0,36.8 940.6,55.7 942.3,62.5C923.8,59.4 920.2,65.6 865.1,62.5C866.8,38.3 863.4,43.8 865.1,20.0" stroke="#000000" fill="#ffffff" style="stroke-width: 2;"></path><text x="875.0859375" y="44" style="font-size: 16px; font-family: danielbd;"><tspan x="875.0546875">Server</tspan></text></g><g class="actor"><path d="M865.0546875,252.5C925.3,249.4 877.4,255.6 942.3,252.5C944.0,272.7 940.6,284.8 942.3,295.0C908.3,298.1 883.6,291.9 865.1,295.0C866.8,274.3 863.4,272.4 865.1,252.5" stroke="#000000" fill="#ffffff" style="stroke-width: 2;"></path><text x="875.0859375" y="276.5" style="font-size: 16px; font-family: danielbd;"><tspan x="875.0546875">Server</tspan></text></g><path d="M903.7,62.5C911.3,222.1 896.1,157.7 903.7,252.5" stroke="#000000" fill="none" style="stroke-width: 2;"></path><g class="signal"><text x="68.140625" y="90.25" style="font-size: 16px; font-family: danielbd;"><tspan x="68.140625">Registers with email and password</tspan></text><path d="M45.7,105.0C299.6,91.2 254.7,118.8 390.6,105.0" stroke="#000000" fill="none" style="stroke-width: 2; marker-end: url(&quot;#markerArrowBlock&quot;);"></path></g><g class="signal"><text x="500.84375" y="132.75" style="font-size: 16px; font-family: danielbd;"><tspan x="500.84375">Passes on the email and password</tspan></text><path d="M390.6,147.5C594.4,127.0 821.6,168.0 903.7,147.5" stroke="#000000" fill="none" style="stroke-width: 2; marker-end: url(&quot;#markerArrowBlock&quot;);"></path></g><g class="signal"><text x="400.6328125" y="175.25" style="font-size: 16px; font-family: danielbd;"><tspan x="400.6328125">Makes an account on the server and API, sends the token</tspan></text><path d="M903.7,190.0C549.0,210.5 665.1,169.5 390.6,190.0" stroke="#000000" fill="none" style="stroke-width: 2; marker-end: url(&quot;#markerArrowBlock&quot;);"></path></g><g class="signal"><text x="55.7109375" y="217.75" style="font-size: 16px; font-family: danielbd;"><tspan x="55.7109375">Passes on the token, stored in cookies</tspan></text><path d="M390.6,232.5C100.9,246.3 236.8,218.7 45.7,232.5" stroke="#000000" fill="none" style="stroke-width: 2; marker-end: url(&quot;#markerArrowBlock&quot;);"></path></g></svg>