<?xml version="1.0" encoding="utf-8" standalone="no"?><!DOCTYPE svg PUBLIC "-//W3C//DTD SVG 20010904//EN" "http://www.w3.org/TR/2001/REC-SVG-20010904/DTD/svg10.dtd"><svg xmlns="http://www.w3.org/2000/svg" width="692" height="315" xmlns:xlink="http://www.w3.org/1999/xlink"><source><![CDATA[Client->API: Sends token with request 
API->Server: Verifies the token
Server->API: Gets the permisson level
API->Client: Sends back corresponding information]]></source><desc></desc><defs><marker viewBox="0 0 5 5" markerWidth="5" markerHeight="5" orient="auto" refX="5" refY="2.5" id="markerArrowBlock"><path d="M 0 0 L 5 2.5 L 0 5 z"></path></marker><marker viewBox="0 0 9.6 16" markerWidth="4" markerHeight="16" orient="auto" refX="9.6" refY="8" id="markerArrowOpen"><path d="M 9.6,8 1.92,16 0,13.7 5.76,8 0,2.286 1.92,0 9.6,8 z"></path></marker></defs><g class="title"></g><g class="actor"><path d="M10,20C27.1,17.1 39.8,22.9 81.4,20.0C79.7,55.7 83.1,45.8 81.4,62.5C61.1,65.4 27.1,59.6 10.0,62.5C8.3,50.6 11.7,55.7 10.0,20.0" stroke="#000000" fill="#ffffff" style="stroke-width: 2;"></path><text x="20" y="44" style="font-size: 16px; font-family: danielbd;"><tspan x="20">Client</tspan></text></g><g class="actor"><path d="M10,252.5C56.3,255.4 64.3,249.6 81.4,252.5C83.1,262.7 79.7,259.3 81.4,295.0C34.2,297.9 64.3,292.1 10.0,295.0C8.3,288.2 11.7,273.5 10.0,252.5" stroke="#000000" fill="#ffffff" style="stroke-width: 2;"></path><text x="20" y="276.5" style="font-size: 16px; font-family: danielbd;"><tspan x="20">Client</tspan></text></g><path d="M45.7,62.5C38.1,108.1 53.3,206.9 45.7,252.5" stroke="#000000" fill="none" style="stroke-width: 2;"></path><g class="actor"><path d="M366.0625,20C402.4,21.9 406.2,18.1 413.9,20.0C412.2,39.2 415.6,26.8 413.9,62.5C399.8,60.6 377.9,64.4 366.1,62.5C367.8,55.7 364.4,30.2 366.1,20.0" stroke="#000000" fill="#ffffff" style="stroke-width: 2;"></path><text x="376.0625" y="44" style="font-size: 16px; font-family: danielbd;"><tspan x="376.0625">API</tspan></text></g><g class="actor"><path d="M366.0625,252.5C377.5,254.4 402.4,250.6 413.9,252.5C412.2,270.3 415.6,266.0 413.9,295.0C377.5,293.1 377.5,296.9 366.1,295.0C364.4,262.7 367.8,284.8 366.1,252.5" stroke="#000000" fill="#ffffff" style="stroke-width: 2;"></path><text x="376.0625" y="276.5" style="font-size: 16px; font-family: danielbd;"><tspan x="376.0625">API</tspan></text></g><path d="M390.0,62.5C397.6,160.5 382.4,128.3 390.0,252.5" stroke="#000000" fill="none" style="stroke-width: 2;"></path><g class="actor"><path d="M585.1328125,20C603.7,23.1 611.6,16.9 662.4,20.0C664.1,55.7 660.7,52.3 662.4,62.5C597.5,59.4 619.1,65.6 585.1,62.5C586.8,52.1 583.4,31.8 585.1,20.0" stroke="#000000" fill="#ffffff" style="stroke-width: 2;"></path><text x="595.1640625" y="44" style="font-size: 16px; font-family: danielbd;"><tspan x="595.1328125">Server</tspan></text></g><g class="actor"><path d="M585.1328125,252.5C638.8,249.4 639.6,255.6 662.4,252.5C660.7,259.3 664.1,285.7 662.4,295.0C643.8,291.9 650.0,298.1 585.1,295.0C583.4,274.3 586.8,267.5 585.1,252.5" stroke="#000000" fill="#ffffff" style="stroke-width: 2;"></path><text x="595.1640625" y="276.5" style="font-size: 16px; font-family: danielbd;"><tspan x="595.1328125">Server</tspan></text></g><path d="M623.8,62.5C616.2,160.0 631.4,92.9 623.8,252.5" stroke="#000000" fill="none" style="stroke-width: 2;"></path><g class="signal"><text x="107.2578125" y="90.25" style="font-size: 16px; font-family: danielbd;"><tspan x="107.2265625">Sends token with request</tspan></text><path d="M45.7,105.0C128.6,118.8 275.5,91.2 390.0,105.0" stroke="#000000" fill="none" style="stroke-width: 2; marker-end: url(&quot;#markerArrowBlock&quot;);"></path></g><g class="signal"><text x="430.6875" y="132.75" style="font-size: 16px; font-family: danielbd;"><tspan x="430.6875">Verifies the token</tspan></text><path d="M390.0,147.5C427.4,138.1 580.4,156.9 623.8,147.5" stroke="#000000" fill="none" style="stroke-width: 2; marker-end: url(&quot;#markerArrowBlock&quot;);"></path></g><g class="signal"><text x="399.9609375" y="175.25" style="font-size: 16px; font-family: danielbd;"><tspan x="399.9609375">Gets the permisson level</tspan></text><path d="M623.8,190.0C580.6,199.4 567.6,180.6 390.0,190.0" stroke="#000000" fill="none" style="stroke-width: 2; marker-end: url(&quot;#markerArrowBlock&quot;);"></path></g><g class="signal"><text x="55.7421875" y="217.75" style="font-size: 16px; font-family: danielbd;"><tspan x="55.7109375">Sends back corresponding information</tspan></text><path d="M390.0,232.5C334.9,246.3 194.1,218.7 45.7,232.5" stroke="#000000" fill="none" style="stroke-width: 2; marker-end: url(&quot;#markerArrowBlock&quot;);"></path></g></svg>